<svg id="Layer_1" data-name="Layer 1" xmlns="http://www.w3.org/2000/svg" viewBox="0 0 1192.78 287.14"><defs><style>.cls-1{fill:#009ee2;}.cls-2{fill:#009fe2;}.cls-3{fill:#019fe2;}.cls-4{fill:#fefefe;}.cls-5{fill:#fdfefe;}.cls-6{fill:#f1f9fd;}.cls-7{fill:#f0f9fc;}.cls-8{fill:#f7fbfd;}.cls-9{fill:#f6fbfd;}.cls-10{fill:#f4fafd;}.cls-11{fill:#a0dbf3;}.cls-12{fill:#d6eff9;}</style></defs><path class="cls-1" d="M1765.16-589.9c.52-63.85,51.34-113.57,116.21-112.58,62.83,1,111.86,54.37,110.35,116.55-1.47,60.43-53,110.54-114.8,109.83S1764.65-528.13,1765.16-589.9Z" transform="translate(-847.16 702.49)"/><path class="cls-1" d="M1511.17-526c-18.32,0-36.63.08-54.94-.07-3.27,0-4.56.53-4.65,4.22-.29,12.17,1.41,23.84,7.15,34.7,7.18,13.57,18.71,20.31,33.86,21a57.07,57.07,0,0,0,17.78-2c13.8-3.79,20.75-13.74,23.3-27.1.79-4.14,2.36-5.37,6.5-5.18,8,.36,16,.22,24,.05,3.32-.07,4.66.32,3.88,4.34-4.43,22.73-17.11,38.65-38.69,47-19,7.35-38.65,8.25-58.37,3.59-22.65-5.36-38-19.66-45.74-41.28-10.39-29.16-10.6-58.77.45-87.84,13.4-35.27,43.65-49.4,77.47-46.82,13.6,1,26.55,4.5,37.95,12.39,18.18,12.57,25.92,31,28.67,52,1.17,8.93.88,17.92,1.08,26.9.08,3.38-1.06,4.13-4.24,4.11C1548.13-526.1,1529.65-526,1511.17-526Z" transform="translate(-847.16 702.49)"/><path class="cls-1" d="M1057.67-593.62c10.41-15.62,24.62-25.07,42.64-27.43,22.13-2.9,42.86,1.2,59.56,17.49,10.12,9.88,13.9,22.64,14,36.28.29,38.77.06,77.55.18,116.32,0,3.48-1.22,4.11-4.31,4-7.82-.18-15.66-.29-23.47,0-3.91.17-4.63-1.19-4.61-4.79q.19-49.92,0-99.84a87,87,0,0,0-1.59-17.85c-3.23-15.29-12.19-24.31-27.62-27-26.57-4.62-49.43,11.37-52.57,35.71a172,172,0,0,0-1.69,21.84c0,28.79-.13,57.58.13,86.37,0,4.78-1.47,5.74-5.81,5.54-7.48-.33-15-.2-22.47,0-2.87.06-4.06-.46-4-3.75q.17-81.13,0-162.25c0-2.91.56-4.13,3.81-4,8,.24,16,.22,24,0,3.15-.07,4,1.05,3.89,4C1057.54-606.51,1057.67-600.06,1057.67-593.62Z" transform="translate(-847.16 702.49)"/><path class="cls-1" d="M961.9-472c-3.87,4.6-6.63,8.66-10.14,12.12-18.12,17.87-51.6,23.47-74.33,12.13-17-8.48-25.47-23.11-29-41.16a77.21,77.21,0,0,1-1.18-14.88c0-35.93.12-71.86-.1-107.79,0-4.57,1.3-5.57,5.56-5.37,7.3.35,14.65.32,22,0,3.89-.16,5,.93,5,4.91q-.25,49.91-.06,99.81a75.79,75.79,0,0,0,3.7,24.53c4.67,13.65,14.68,21.18,29,21.87,27,1.31,43-13,47-41.92a188,188,0,0,0,1.87-26.83c-.1-25.78,0-51.56-.12-77.35,0-3.77.76-5.21,4.86-5,7.81.35,15.64.19,23.46,0,2.78,0,4.13.36,4.12,3.71q-.15,81.35,0,162.68c0,2.86-.85,3.68-3.66,3.62-8-.17-16-.24-24,0-3.5.11-4.13-1.26-4-4.32C962-457.79,961.9-464.38,961.9-472Z" transform="translate(-847.16 702.49)"/><path class="cls-1" d="M1259.88-528.86c-.17-19.38,2.72-36.41,10.53-52.45,15.12-31,45-43.25,76.44-39.83,24.45,2.66,42.39,14.63,51.54,38.14a62.6,62.6,0,0,1,3.73,17c.27,2.9-.73,3.73-3.55,3.68-8.32-.14-16.65-.11-25,0-2.46,0-3.78-.67-3.7-3.34a15.18,15.18,0,0,0-.53-3.44c-3.34-16.65-12-26.22-25.93-28.51-17.87-2.94-32.37,3.65-40.61,18.51-5,9-7.27,18.89-8.27,29-1.77,18-1.75,35.89,3.53,53.36,4.73,15.63,13.53,27.36,31,30,22.35,3.32,39-9.08,41.67-31.68.59-4.91,2.34-5.91,6.79-5.69,7.48.35,15,.21,22.47,0,3.15-.07,3.86.8,3.41,4-4.73,33.87-29.19,55.85-63.72,57.12-18.6.69-36.19-2.37-51.34-14-15.51-11.94-22.67-28.67-26.31-47.25A113.88,113.88,0,0,1,1259.88-528.86Z" transform="translate(-847.16 702.49)"/><path class="cls-1" d="M1638.7-520.9c0,22.63-.1,45.25.09,67.87,0,4-.69,5.55-5.06,5.31a182.66,182.66,0,0,0-22,0c-4.78.31-5.3-1.58-5.29-5.64q.21-67.12.07-134.25c0-7.29,1.16-6.7-6.56-6.74-6.33,0-12.66-.1-19,0-2.56.06-3.54-.75-3.46-3.39.16-5.16.19-10.32,0-15.47-.11-2.86.84-3.71,3.66-3.63,7,.18,14-.12,21,.13,3.43.13,4.57-.8,4.49-4.37-.23-11-.34-22,0-32.94.75-24.63,15.19-40.66,39.44-44.61,11.4-1.86,22.51-.64,33.65,1.81,2.42.53,2.82,1.63,2.79,3.72-.08,6.65-.17,13.31,0,20,.09,3-1,3.75-3.76,3.45-7.61-.83-15.21-1.39-22.86-.14-11.82,1.94-17.2,8-17.24,19.91,0,9.48.23,19-.12,28.44-.16,4.17,1.35,4.86,5,4.78,10-.23,20,0,30-.16,3.26-.06,4.33.85,4.15,4.14a131.6,131.6,0,0,0,0,14.46c.16,3.09-.85,4-3.92,3.94-10.15-.18-20.31.09-30.46-.15-3.65-.09-4.78.8-4.75,4.65C1638.8-566.81,1638.7-543.86,1638.7-520.9Z" transform="translate(-847.16 702.49)"/><path class="cls-1" d="M1236.07-532.22c0,26.61-.13,53.22.13,79.83,0,4.63-1.37,5.55-5.58,5.34a195.39,195.39,0,0,0-21,0c-4.76.29-6.12-1-6.1-6,.19-50.89.12-101.78.12-152.67,0-11.49,0-11.49,11.33-11.49,5.49,0,11,.25,16.46-.09,3.8-.23,4.71,1,4.69,4.7C1236-585.77,1236.07-559,1236.07-532.22Z" transform="translate(-847.16 702.49)"/><path class="cls-1" d="M1871.24-450a54.67,54.67,0,0,0-15.48-4.94c-1.44-.24-3-.58-4.21.74-8.6,9.27-19.93,9.78-31.38,9.57a105.45,105.45,0,0,1-38.73-8.4,28.7,28.7,0,0,1-2.72-1.57c32.55-9,64.33-11.31,96.14-.17,2.09.73,4,1.41,6.25.53,29.65-11.81,67.73-9.3,96.59-.48-.12,1.49-1.45,1.48-2.39,1.86-17.44,7-35.38,10.23-54.15,7a24.68,24.68,0,0,1-14-7.06,6.37,6.37,0,0,0-6.7-2c-4.65,1.15-9.31,2.24-14.26,4.8,1.81,1.2,3.22,2.18,4.67,3.09a119.3,119.3,0,0,1,28.34,24.18c1.73,2.06,2.63,3.73-.22,5.55-2.26,1.44-4,3.24-6.65,0a132.65,132.65,0,0,0-29.87-27c-2.73-1.78-4.71-1.94-7.57-.06a127.15,127.15,0,0,0-29.51,26.63c-2.56,3.18-4.33,2.32-7,.51-3.15-2.18-1.77-4,0-6a119.91,119.91,0,0,1,28-23.82Z" transform="translate(-847.16 702.49)"/><path class="cls-1" d="M1219.63-656.52c-5,0-10-.14-15,.06-2.93.11-4.13-.63-4.06-3.84.2-9.3.14-18.62,0-27.92,0-2.54.69-3.48,3.36-3.45,10.64.13,21.29.1,31.93,0,2.29,0,3.22.54,3.19,3-.12,9.64-.15,19.28,0,28.92,0,2.8-1.11,3.29-3.53,3.23C1230.28-656.61,1225-656.52,1219.63-656.52Z" transform="translate(-847.16 702.49)"/><path class="cls-1" d="M2019.06-497.65c-8.65,23.24-31.44,37.47-55.23,34.69-1.42-.16-3.49.29-3.88-1.37-.32-1.36,1.22-2.62,2.31-3.63,8.85-8.23,19.3-14.06,29.9-19.58C2000.63-491.95,2009.13-496.5,2019.06-497.65Z" transform="translate(-847.16 702.49)"/><path class="cls-1" d="M1737.66-497.71a42.12,42.12,0,0,1,12.31,3.09,190.17,190.17,0,0,1,40,22.32,49.61,49.61,0,0,1,5.24,4.59c1,1,2.66,2,2.07,3.64-.52,1.38-2.33.92-3.59,1.1-17.63,2.54-32-3.49-43.6-16.68A95.3,95.3,0,0,1,1737.66-497.71Z" transform="translate(-847.16 702.49)"/><path class="cls-1" d="M1973.23-507.85c-1.29,8.87-3,17.11-7,24.72-6.57,12.64-18.76,18.88-33,17.46-3.91-.39-3.48-1.79-2.18-4.27a37.31,37.31,0,0,1,6.31-8.3A248.3,248.3,0,0,1,1967.55-505C1969.1-506.2,1970.57-507.62,1973.23-507.85Z" transform="translate(-847.16 702.49)"/><path class="cls-1" d="M1828.62-466.43c-26.76,4-41.57-11.88-44.27-42.49C1801.07-496.25,1817-484.29,1828.62-466.43Z" transform="translate(-847.16 702.49)"/><path class="cls-2" d="M1763.68-494.1C1743-496.75,1719-525,1716.8-549A149.19,149.19,0,0,1,1763.68-494.1Z" transform="translate(-847.16 702.49)"/><path class="cls-1" d="M1994.5-493.94c4.7-15.69,30.67-46.4,45.24-53.76C2042.49-530.45,2015.85-498.49,1994.5-493.94Z" transform="translate(-847.16 702.49)"/><path class="cls-2" d="M1764-544.92c3.55,3.37,5.3,7.29,7,11.21a165.62,165.62,0,0,1,11.25,38.5,42.14,42.14,0,0,1,.32,5.95c.1,3.31-.88,4.25-4,2.15-14-9.46-19.62-22.86-18.66-39.29A59.59,59.59,0,0,1,1764-544.92Z" transform="translate(-847.16 702.49)"/><path class="cls-2" d="M1992.66-545.58c10.74,24,2.95,50.21-18.29,60.58C1975.68-506.92,1981.7-526.4,1992.66-545.58Z" transform="translate(-847.16 702.49)"/><path class="cls-2" d="M1713.6-599.4A142.57,142.57,0,0,1,1738.88-539C1720.86-545.79,1708.62-574.85,1713.6-599.4Z" transform="translate(-847.16 702.49)"/><path class="cls-3" d="M2001.51-580.91c10.32,15.56,16.88,30.91,10.06,48.94-1.39,3.68-3.09,9.73-6,9.45-3.56-.35-3.61-6.36-4.27-10.17-2.63-15.1-4.51-30.26-.9-45.5C2000.58-578.79,2000.89-579.36,2001.51-580.91Z" transform="translate(-847.16 702.49)"/><path class="cls-2" d="M1752.58-521c-14.84-16.29-11.27-41.8,4.16-60C1760.07-560.23,1759.27-540.72,1752.58-521Z" transform="translate(-847.16 702.49)"/><path class="cls-3" d="M1730.75-582.49c-16.21-15.29-13.81-46.55-5.22-62.52C1732.17-624.46,1734.24-604.11,1730.75-582.49Z" transform="translate(-847.16 702.49)"/><path class="cls-3" d="M2001.12-614.08c16.66,13.11,27.08,36.68,17.69,54.37C2008.55-576.35,2002.05-593.63,2001.12-614.08Z" transform="translate(-847.16 702.49)"/><path class="cls-3" d="M1738.4-559.44c-8.11-17.73-.73-40.6,17.51-54.36C1755.48-593.6,1748.64-576.32,1738.4-559.44Z" transform="translate(-847.16 702.49)"/><path class="cls-3" d="M2019-603.43c-13.6-12.71-21.92-28.15-27.5-45.87C2010.84-641.06,2024.17-618.86,2019-603.43Z" transform="translate(-847.16 702.49)"/><path class="cls-3" d="M1766.39-648.56c-5.72,17.85-14.58,32.64-28.08,45.24C1734.49-620.78,1746.55-640.32,1766.39-648.56Z" transform="translate(-847.16 702.49)"/><path class="cls-3" d="M2000.32-674.34c11.81,10.23,21.39,20.47,23.37,35.68.45,3.42,1.11,8.14-1.74,9.52-2.07,1-4.61-3.49-6.53-5.92C2006.65-646.17,2002.65-659.18,2000.32-674.34Z" transform="translate(-847.16 702.49)"/><path class="cls-3" d="M1735-627.88c-4.86-14.4,4.12-33.06,21.74-45.72C1754.15-655.94,1748.69-640.32,1735-627.88Z" transform="translate(-847.16 702.49)"/><path class="cls-4" d="M1862.73-652.25c.71,3.92,3.08,5.11,6.76,4.77,4.84-.44,6.93,1.39,6.56,6.77-.54,8-.12,16-.15,24,0,2,0,3.7,2.77,3.6,2.54-.08,2.55-1.78,2.34-3.46-.42-3.46.93-4.77,4.43-4.64,3,.11,6-.57,9-.54a13,13,0,0,0,11.71-6c-6.8.53-13.13.64-19.33,1.61-4.74.74-6.27-.55-5.78-5.26.52-4.93-1.85-11,.88-14.58s9.13-1,13.73-2.49a14.14,14.14,0,0,1,2-.25c8.86-1.46,8.86-1.47,11.76,7.26.83,2.52,1.66,5,2.45,7.59.5,1.62,1.07,2.55,3.16,1.74,1.84-.7,2.21-1.45,1.58-3.22-1.55-4.38-2.73-8.9-4.48-13.19-1.13-2.77-.37-3.69,2.24-4.64a145.48,145.48,0,0,0,13.71-5.9c2.16-1,3.4-1,4.9,1.08,3.18,4.49,6,9.18,9,13.75,2.38,3.61,1.39,5.15-2.36,6.18-1.19.32-2.69.39-3.56,2.22,6,.56,11.79,1.81,16.68,5.71.3-1,.56-1.37.45-1.53-3-4.65-1.49-7.24,3.45-9.16a39.84,39.84,0,0,0,9.41-5.57c2.85-2.19,3.91-1.18,5.51,1.47,22.7,37.52,19.91,86.73-7,121.37a107.46,107.46,0,0,1-17.74,18.18c-1.25,1-2.38,2.44-4.33,1.16-7.14-4.66-12.47-10.52-12.94-19.54-.2-3.87.72-6,5.69-5.66,16.85,1.32,36.68-13.57,42.65-31.91,10.73-33-10.63-59.7-36-67.14-15.78-4.62-29.35.71-39.91,12.84-5.95,6.83-12.87,10.08-21.76,10-5.34,0-6.54,1.89-4.69,6.88.93,2.5,2.18,4.92-2.07,5.33-.15,0-.42.11-.43.2-.6,4.73-3.79,7.93-6.25,11.68-1.08,1.65-1.09,4.37-2.79,6.4-3.29,3.93-3,8.41.69,12.11,3.17,3.15,6.78,5.87,10.26,8.71,4.2,3.42,6.73,7.63,7,13.19a56.9,56.9,0,0,0,2.41,14.69c2.38,7.33-.79,11.91-8.49,12.8-11.54,1.33-22.25,5.4-32.87,9.77a69.84,69.84,0,0,1-11.91,3.52c-9.94,2.17-18-1-24.69-8.25-2.54-2.74-1.5-11.49,1.57-13.71.93-.66,1.49-.21,2.2.2,6.54,3.77,13.57,2.55,20.47,1.79,5-.55,9.84-1.61,14.73-2.58a12.44,12.44,0,0,1,5.88.41c10.86,3,18.84-3.23,18.79-14.6,0-3.58-1.67-5.32-5.37-4.38-1.57.4-3,1.6-3.25-1.52-.18-2-2.52-1.69-4.16-1.36a5.83,5.83,0,0,0-2.77,1c-7.55,7.09-16.21,3.13-24.43,2.32-4.05-.4-6.31-2.92-6.77-7.73-1.08-11.39-2.26-22.81-5.3-33.93-1.18-4.34,1.76-7.45,6.48-6.83,3.27.43,6.46,1.52,9.71,2.2,4.21.87,7.3-1,10.9-3.25,5.35-3.38,6-9.93,10.74-13.4,1.09-.79.48-2.14.07-3.25-1.43-3.84-.15-7.08,2.07-10.26,9.4-13.5,7.6-26.1-5.13-36.86-8.59-7.27-18-12.53-29.67-12.47-20.57.11-34.63,18.13-31.1,39.83a63.82,63.82,0,0,0,2,9.24c1.63,5.08-.07,9.19-4.1,11.77-6.4,4.08-12.92,8-19.43,13.34a84.09,84.09,0,0,1,4.38-28.66c9.79-30.6,29.33-52.74,58.32-66.7,3.89-1.88,5.89-1,8.32,1.93,1.47,1.78,1.25,2.57-.39,3.89-3.86,3.12-7.57,6.43-11.42,9.72,3.35,2.65,5.85,1.81,8.4-.75,2-2,4.49-3.47,6.53-5.41s3.35-1.66,5.54-.22c6.93,4.52,7,4.4,3,11.85-.64,1.17-1.26,2.35-1.85,3.54-1,1.95,1,2.07,1.85,2.86,1.24,1.18,2,.46,2.63-.79.21-.45.48-.87.73-1.3,5.5-9.82,5.49-9.76,16.53-8,2,.31,3.13.85,3,3,0,.49,0,1,0,1.49-.08,4.33,1.38,9.65-.63,12.71C1872.89-649.86,1867.22-653.64,1862.73-652.25Z" transform="translate(-847.16 702.49)"/><path class="cls-4" d="M1948.09-672.1c.84.65,1.52,1.1,2.11,1.64a121.69,121.69,0,0,1,14.6,15.59c1.36,1.76,1.36,2.84-.64,3.82a4.92,4.92,0,0,0-.43.26c-4.6,2.61-9.19,7.25-13.82,7.3-5.06.06-5.33-7.63-8.57-11.34-2.16-2.46-5.47-5.69-5.09-8.08s4.81-3.93,7.45-5.88C1945.14-669.85,1946.56-670.94,1948.09-672.1Z" transform="translate(-847.16 702.49)"/><path class="cls-5" d="M1909.77-680.48c.72.51,1.4,1,2,1.45a130.22,130.22,0,0,1,13.69,12.23c1.75,1.74,1.91,2.92-.63,3.81-.16,0-.29.16-.44.22-5,2.25-9.87,4.65-15.24,5.83-2.87-5.36-5.75-10.72-8.58-16.11-.27-.5-.41-1.6-.18-1.75C1903.49-676.75,1906.61-678.58,1909.77-680.48Z" transform="translate(-847.16 702.49)"/><path class="cls-5" d="M1881.05-661.22c0-8.52.09-8.17,8.35-10.45,4.64-1.28,7-.1,8.66,4.11.91,2.3,2.3,4.41,3.37,6.65,2.85,5.95,2.83,6-3.89,7.11-3.76.6-7.61.73-11.35,1.47-4.31.84-5.77-.74-5.17-4.9A28,28,0,0,0,1881.05-661.22Z" transform="translate(-847.16 702.49)"/><path class="cls-5" d="M1943.53-675.2c-.65.59-1.22,1.19-1.87,1.67-1.73,1.29-3.6,2.41-5.22,3.82-2.83,2.46-4.9,2.63-7.68-.57-3.56-4.11-8-7.47-12-11.22-1-.9-3.42-1.6-2.23-3.1,1.49-1.9,3-5.62,5.73-4.6a86.42,86.42,0,0,1,22.41,12.68A4.67,4.67,0,0,1,1943.53-675.2Z" transform="translate(-847.16 702.49)"/><path class="cls-6" d="M1876.1-691.08c0,3.4.14,6.81-.06,10.21-.1,1.8,1.2,4.55-1.29,5.18-2.85.73-5.9-.28-8.65-1.38-1.23-.5-.41-1.7.15-2.48,2.84-4,5.7-8,8.56-12Z" transform="translate(-847.16 702.49)"/><path class="cls-7" d="M1882.14-691.5l8.59,11.94c1.21,1.68.89,2.67-1.24,3a33,33,0,0,0-3.38.76c-4,1.09-5.74-.19-5.32-4.57.34-3.54.07-7.14.07-10.71Z" transform="translate(-847.16 702.49)"/><path class="cls-8" d="M1887.49-692.7c5.92,1.63,10.49,4.56,15.13,7.3.81.48,2.44.77,1.39,2.49-2,3.25-7.13,3.59-9.23.58C1892.51-685.58,1890.22-688.82,1887.49-692.7Z" transform="translate(-847.16 702.49)"/><path class="cls-9" d="M1868.65-691.76c-2.51,3.65-5.05,7.28-7.52,11a2.19,2.19,0,0,1-3.39.72c-1.76-1.13-4.42-1.41-5-3.65-.32-1.28,1.75-1.73,2.82-2.38C1859.52-688.51,1863.52-690.83,1868.65-691.76Z" transform="translate(-847.16 702.49)"/><path class="cls-8" d="M1897.66-695.85a53.93,53.93,0,0,1,12.5,3c1.13.4,3.89-.09,2.83,2.15-.79,1.66-2.15,4.53-5.29,2.74l-12-6.85C1895.53-696.8,1896.82-695.87,1897.66-695.85Z" transform="translate(-847.16 702.49)"/><path class="cls-10" d="M1860.48-694.67c-3.43,2-7,3.81-10.24,6.08-2.39,1.67-3.8.94-5.48-.88s-1.42-2.64,1-3.28c4.47-1.21,8.85-2.78,13.53-3C1860.42-696.24,1860.6-695.62,1860.48-694.67Z" transform="translate(-847.16 702.49)"/><path class="cls-11" d="M1897.66-695.85l-2,1c-.85-.3-1.88-.3-2.37-1.43A4,4,0,0,1,1897.66-695.85Z" transform="translate(-847.16 702.49)"/><path class="cls-12" d="M1860.48-694.67l-1.23-1.11a4.9,4.9,0,0,1,3.81-.72C1862.63-695.08,1861.54-694.89,1860.48-694.67Z" transform="translate(-847.16 702.49)"/><path class="cls-4" d="M1493.8-548.68c-12.63,0-25.26,0-37.89,0-1.8,0-4.16.83-4.06-2.59.52-17.92,9.67-41.06,32.71-45.78,22.58-4.62,46.76,4.27,51.3,35,2,13.42,1.86,13.44-11.65,13.44Z" transform="translate(-847.16 702.49)"/></svg>