<?xml version="1.0" standalone="no"?>
<!DOCTYPE svg PUBLIC "-//W3C//DTD SVG 20010904//EN"
 "http://www.w3.org/TR/2001/REC-SVG-20010904/DTD/svg10.dtd">
<svg version="1.0" xmlns="http://www.w3.org/2000/svg"
 width="1058.000000pt" height="1058.000000pt" viewBox="0 0 1058.000000 1058.000000"
 preserveAspectRatio="xMidYMid meet">
<metadata>
Created by potrace 1.14, written by Peter Selinger 2001-2017
</metadata>
<g transform="translate(0.000000,1058.000000) scale(0.100000,-0.100000)"
fill="#000000" stroke="none">
<path d="M6435 9270 c-16 -4 -93 -31 -170 -60 -77 -29 -156 -59 -175 -66 -318
-115 -519 -299 -629 -576 -59 -149 -80 -351 -51 -507 15 -85 62 -221 96 -279
34 -58 135 -165 145 -155 9 9 155 249 197 323 14 25 41 70 61 100 20 30 46 75
59 99 14 24 43 74 66 110 23 36 45 73 49 81 4 8 18 33 32 55 14 22 31 50 37
63 13 26 33 30 25 5 -10 -38 -161 -526 -207 -673 -69 -220 -83 -271 -75 -278
4 -4 48 -7 98 -6 233 3 498 161 662 394 172 246 213 574 106 867 -52 144 -151
398 -169 431 -29 55 -95 86 -157 72z"/>
<path d="M7740 8146 c-62 -17 -96 -36 -235 -130 -360 -242 -758 -442 -1140
-572 -262 -90 -570 -159 -840 -190 -178 -20 -530 -23 -685 -5 -575 65 -1021
254 -1460 614 -118 97 -174 122 -275 122 -69 0 -89 -4 -148 -32 -131 -62 -232
-194 -264 -347 -35 -168 24 -305 191 -445 380 -318 791 -533 1266 -662 80 -22
183 -46 230 -54 47 -8 96 -17 110 -20 130 -29 438 -55 640 -55 159 0 447 21
568 41 37 6 81 13 97 16 257 41 493 97 725 170 503 158 994 395 1452 700 255
170 314 251 306 425 -4 76 -9 96 -43 165 -97 197 -312 309 -495 259z"/>
<path d="M1796 5843 c-14 -91 -28 -949 -24 -1525 5 -606 4 -628 -13 -628 -13
0 -19 -7 -19 -24 0 -85 33 -513 40 -520 4 -4 212 -3 462 4 249 6 579 15 733
18 l280 7 -1 270 -2 270 -438 0 -438 0 -9 35 c-12 49 -12 1625 0 1845 6 102 7
184 2 189 -5 6 -33 13 -61 17 -58 8 -102 15 -318 53 -191 34 -186 34 -194 -11z"/>
<path d="M6476 5727 c-152 -47 -255 -159 -353 -386 l-24 -56 6 65 c3 36 8 93
12 127 7 73 13 70 -137 78 -52 3 -168 11 -258 18 -90 7 -167 10 -171 7 -14 -8
-31 -327 -42 -770 -11 -412 -6 -908 11 -1195 11 -179 40 -449 51 -466 6 -10
62 -3 236 25 125 21 251 43 278 50 59 15 57 -1 34 231 -18 195 -19 716 -1 835
81 527 286 900 495 900 55 0 87 -24 120 -90 l22 -45 285 -3 c157 -1 290 0 297
2 30 12 -73 294 -145 398 -84 122 -235 231 -368 267 -113 30 -263 34 -348 8z"/>
<path d="M4220 5737 c-3 -3 -33 -8 -68 -11 -319 -30 -595 -222 -769 -536 -68
-123 -141 -358 -164 -527 -10 -78 -7 -410 4 -463 3 -14 9 -43 12 -64 46 -318
213 -630 433 -807 234 -189 550 -240 852 -139 282 94 517 357 639 715 41 122
68 233 80 335 14 106 14 392 1 485 -16 109 -69 305 -105 390 -8 17 -23 52 -34
79 -34 78 -127 211 -199 283 -72 72 -219 174 -279 193 -21 7 -42 16 -48 20
-28 21 -340 62 -355 47z m181 -581 c90 -43 173 -167 232 -350 l32 -101 -1
-210 c0 -205 -1 -212 -32 -323 -18 -62 -44 -141 -58 -174 -77 -183 -223 -308
-359 -308 -183 0 -335 199 -399 521 -46 231 -22 493 62 672 80 170 169 256
301 290 61 16 171 7 222 -17z"/>
<path d="M8235 5734 c-142 -19 -265 -66 -388 -147 -384 -251 -595 -798 -537
-1388 33 -340 139 -588 335 -785 129 -131 266 -207 458 -256 67 -17 102 -19
216 -16 119 4 147 8 227 36 192 65 336 169 490 354 74 88 184 263 184 291 0
15 -45 36 -215 102 -38 15 -83 33 -100 41 -73 32 -188 74 -200 74 -8 0 -37
-35 -64 -78 -100 -155 -251 -272 -351 -272 -55 0 -141 35 -199 80 -42 33 -131
149 -131 170 0 4 28 10 62 14 113 11 312 75 465 148 182 86 371 238 485 388
65 85 123 206 149 310 18 70 21 104 17 209 -4 107 -10 139 -35 213 -40 117
-84 188 -168 273 -128 131 -267 208 -406 225 -99 13 -252 20 -294 14z m188
-566 c21 -5 56 -25 77 -45 116 -104 59 -293 -132 -437 -122 -91 -300 -168
-424 -182 l-54 -7 0 36 c0 70 59 269 110 374 80 163 176 249 300 271 45 8 54
8 123 -10z"/>
<path d="M2277 2802 l-27 -3 2 -187 3 -187 26 -3 c19 -2 27 2 30 15 2 10 2 97
-1 193 l-5 175 -28 -3z"/>
<path d="M4147 2783 c-7 -37 -7 -312 0 -341 4 -17 11 -22 27 -20 19 3 21 10
24 86 l3 82 48 0 c60 0 84 -18 141 -105 36 -55 47 -65 71 -65 16 0 29 4 29 9
0 15 -59 101 -94 139 -23 25 -26 32 -13 32 9 0 31 13 49 28 27 25 31 35 30 73
-1 25 -10 55 -20 69 -21 28 -70 37 -208 39 -81 1 -82 1 -87 -26z m248 -48 c30
-29 30 -36 8 -64 -21 -26 -76 -40 -150 -41 l-53 0 0 65 0 65 85 0 c78 0 88 -2
110 -25z"/>
<path d="M5330 2616 l0 -197 23 3 c20 3 22 9 25 86 l3 82 51 0 c45 0 54 -4 87
-37 20 -21 51 -59 68 -85 24 -36 39 -48 58 -48 14 0 25 6 25 13 0 17 -46 85
-88 129 l-35 37 25 6 c61 16 97 90 69 143 -23 43 -53 53 -185 59 l-126 6 0
-197z m242 132 c29 -23 31 -54 5 -83 -22 -26 -29 -28 -108 -29 l-84 -1 -3 63
-3 62 89 0 c55 0 94 -5 104 -12z"/>
<path d="M7340 2616 l0 -197 28 3 c27 3 27 4 30 86 l3 82 44 0 c63 0 71 -5
122 -79 55 -78 69 -91 101 -91 18 0 23 4 18 16 -10 26 -97 144 -107 144 -20 0
-7 18 22 30 31 13 69 62 69 88 0 29 -32 80 -58 92 -15 7 -82 15 -149 18 l-123
5 0 -197z m248 128 c29 -20 28 -55 -2 -83 -20 -18 -40 -24 -105 -28 l-81 -6 0
67 0 66 83 0 c59 0 89 -5 105 -16z"/>
<path d="M7815 2796 c-56 -24 -76 -76 -49 -131 15 -32 24 -38 114 -65 54 -17
105 -39 113 -48 36 -39 -14 -92 -87 -92 -52 0 -84 16 -107 54 -15 25 -25 33
-39 29 -45 -12 -7 -86 56 -114 147 -62 307 54 219 159 -19 23 -42 34 -97 47
-40 10 -79 22 -85 28 -7 5 -13 6 -13 2 0 -4 -7 -2 -15 5 -22 18 -19 67 4 80
26 13 107 13 132 -1 11 -5 24 -22 29 -35 7 -19 16 -25 33 -22 43 6 8 80 -48
104 -42 17 -120 18 -160 0z"/>
<path d="M1862 2613 c3 -183 4 -188 24 -191 20 -3 22 2 26 62 3 56 8 70 33 96
16 16 32 30 35 30 4 0 38 -43 76 -95 63 -86 72 -95 101 -95 18 0 33 3 33 6 0
3 -36 52 -80 109 -44 57 -80 108 -80 113 0 6 34 42 76 81 l76 71 -38 0 c-34 0
-47 -9 -125 -86 -49 -47 -93 -83 -99 -79 -5 3 -10 41 -10 86 0 78 0 79 -25 79
l-25 0 2 -187z"/>
<path d="M2412 2613 l3 -188 115 0 c103 0 118 2 146 22 72 52 95 173 50 270
-34 73 -58 83 -201 83 l-115 0 2 -187z m212 137 c14 -5 35 -24 47 -42 29 -47
23 -167 -11 -203 -41 -43 -181 -64 -194 -29 -8 20 -8 248 0 268 5 12 21 16 69
16 35 0 75 -4 89 -10z"/>
<path d="M2992 2613 l3 -188 148 -3 c96 -2 147 1 147 8 0 5 0 13 0 18 0 4 -55
9 -122 12 l-122 5 -3 62 -4 62 113 3 c108 3 113 4 116 25 3 22 1 22 -110 25
l-113 3 -3 57 -3 57 122 3 c107 3 122 5 125 21 2 15 -11 17 -147 17 l-149 0 2
-187z"/>
<path d="M3373 2613 c2 -187 2 -188 25 -191 26 -4 25 -12 23 155 0 67 3 124 8
127 4 3 54 -60 111 -140 92 -130 105 -145 129 -142 l26 3 0 188 1 187 -27 0
-26 0 1 -136 c1 -75 -1 -137 -5 -139 -3 -2 -50 59 -104 135 -92 131 -100 140
-131 140 l-33 0 2 -187z"/>
<path d="M3760 2780 c0 -18 7 -20 65 -20 l65 0 2 -142 c0 -79 2 -147 3 -153 2
-5 3 -18 4 -28 1 -13 8 -17 24 -15 22 3 22 5 25 170 l2 167 63 3 c49 2 62 6
65 21 3 16 -10 17 -157 17 -154 0 -161 -1 -161 -20z"/>
<path d="M4558 2778 c-2 -13 -2 -98 0 -190 l3 -168 148 0 c119 0 150 3 154 14
3 8 3 17 0 20 -4 3 -60 6 -125 6 l-118 0 0 65 0 64 108 3 c102 3 107 4 110 26
3 22 2 22 -107 22 l-111 0 0 60 0 59 117 3 c103 3 118 5 121 21 3 16 -9 17
-147 17 -148 0 -150 0 -153 -22z"/>
<path d="M4942 2613 l3 -188 25 0 c24 0 25 2 28 78 l3 77 80 0 c93 0 131 15
155 62 23 44 13 106 -21 135 -24 21 -36 23 -151 23 l-124 0 2 -187z m228 129
c29 -23 29 -67 1 -95 -17 -17 -36 -22 -96 -25 l-75 -4 0 71 0 71 74 0 c56 0
79 -4 96 -18z"/>
<path d="M5750 2610 l0 -191 147 3 c131 3 148 5 151 21 3 15 -8 17 -122 17
l-126 0 0 65 0 64 108 3 c102 3 107 4 110 26 3 22 2 22 -107 22 l-111 0 0 60
0 59 117 3 c103 3 118 5 121 21 3 16 -9 17 -142 17 l-146 0 0 -190z"/>
<path d="M6129 2796 c-2 -2 -3 -88 -1 -191 3 -186 3 -186 25 -183 21 3 22 8
27 146 l5 144 100 -144 c91 -129 103 -143 130 -143 l30 0 3 188 2 187 -25 0
-25 0 0 -140 c0 -79 -4 -140 -9 -140 -5 0 -54 63 -107 140 -84 119 -102 140
-125 140 -14 0 -28 -2 -30 -4z"/>
<path d="M6540 2610 l0 -191 152 3 c136 3 153 5 156 21 3 15 -8 17 -122 17
l-126 0 0 65 0 64 108 3 c102 3 107 4 110 26 3 22 2 22 -107 22 l-111 0 0 60
0 59 117 3 c103 3 118 5 121 21 3 16 -9 17 -147 17 l-151 0 0 -190z"/>
<path d="M6930 2655 c0 -168 8 -193 70 -225 53 -27 121 -26 172 2 62 35 71 62
76 226 l4 142 -30 0 -31 0 -3 -146 c-3 -146 -3 -146 -31 -170 -20 -17 -40 -24
-72 -24 -32 0 -52 7 -72 24 -28 24 -28 24 -31 170 l-3 146 -25 0 -24 0 0 -145z"/>
<path d="M8140 2609 l0 -190 23 3 c21 3 22 8 25 91 l3 87 109 0 110 0 0 -91
c0 -88 1 -90 23 -87 22 3 22 5 25 191 l2 187 -24 0 c-24 0 -25 -3 -28 -72 l-3
-73 -105 0 -105 0 -3 73 c-3 69 -4 72 -27 72 l-25 0 0 -191z"/>
<path d="M8560 2609 l0 -190 28 3 27 3 3 188 2 187 -30 0 -30 0 0 -191z"/>
<path d="M8720 2609 l0 -190 23 3 c20 3 22 9 25 79 l3 77 95 4 c90 4 96 6 125
34 21 21 32 44 36 72 5 37 2 45 -30 77 l-35 35 -121 0 -121 0 0 -191z m230
131 c41 -41 14 -103 -52 -115 -18 -4 -54 -5 -78 -3 l-45 3 -3 68 -3 67 81 0
c67 0 83 -3 100 -20z"/>
</g>
</svg>
